<svg xmlns="http://www.w3.org/2000/svg" width="754.397" height="226.951"><path d="M9.682 145.013l64.45-144h20.734l64.226 144h-26.82l-17.126-39.146H53.397l-16.676 39.146zM84.5 26.366l-26.592 62.67h52.274z" fill="#fff"/><path d="M293.846 34.883a34.6 34.6 0 0 0-6.536-4.766 69.181 69.181 0 0 0-10.027-4.766 78.2 78.2 0 0 0-12.732-3.648 74.606 74.606 0 0 0-14.875-1.424q-14.874 0-22.535 5.277a16.952 16.952 0 0 0-7.66 14.806 14.091 14.091 0 0 0 2.477 8.617 19.959 19.959 0 0 0 7.436 5.782 66.145 66.145 0 0 0 12.4 4.36q7.439 1.926 17.352 4.159 11.714 2.84 21.52 5.878a64.854 64.854 0 0 1 16.676 7.608 33.27 33.27 0 0 1 10.704 11.254q3.829 6.694 3.832 16.63 0 11.368-4.733 19.268a37.9 37.9 0 0 1-12.732 12.879 58.937 58.937 0 0 1-18.592 7.3 104.683 104.683 0 0 1-22.535 2.329 126.253 126.253 0 0 1-35.381-4.967 104.927 104.927 0 0 1-30.872-14.5l11.713-19.47a54.781 54.781 0 0 0 8.339 5.887 78.1 78.1 0 0 0 12.73 5.983 118.825 118.825 0 0 0 16.115 4.664 85.04 85.04 0 0 0 18.253 1.927q14.418 0 22.422-4.766t8-13.895a14.128 14.128 0 0 0-2.928-9.126 24.5 24.5 0 0 0-8.565-6.389 75.348 75.348 0 0 0-13.744-4.865q-8.114-2.136-18.479-4.567a205.267 205.267 0 0 1-20.843-5.983 53.661 53.661 0 0 1-14.764-7.606 30.393 30.393 0 0 1-8.9-10.446 31.671 31.671 0 0 1-3.043-14.5 39.191 39.191 0 0 1 4.394-18.766 40.185 40.185 0 0 1 12.169-13.79 56.127 56.127 0 0 1 18.366-8.414 87.632 87.632 0 0 1 22.764-2.84 93.2 93.2 0 0 1 30.307 4.664 103.848 103.848 0 0 1 24 11.56z" fill="#fff"/><path d="M463.167 84.701h-72.849l35.135-83.686h-20.732l-64.449 144h27.039l16.676-39.146h61.747l17.123 39.146h26.818z" fill="#fff"/><path d="M610.967 21.093h-53.181v123.92h-25.242V21.093h-53.405V1.016h131.828z" fill="#fff"/><path d="M754.397 21.093h-53.183v123.92h-25.242V21.093h-53.405V1.016h131.83z" fill="#fff"/><g fill="#fff"><path d="M0 226.635l15.966-37.536h2.22l15.966 37.536h-2.907l-5.233-12.372H8.09l-5.233 12.372zm17.076-34.258l-8.351 19.666h16.548z"/><path d="M92.096 195.337q-3.647-4.071-10.31-4.071-5.5 0-8.008 2.088a6.939 6.939 0 0 0-2.511 5.629 6.485 6.485 0 0 0 .632 3.013 5.228 5.228 0 0 0 1.983 2.038 14.424 14.424 0 0 0 3.437 1.426q2.089.609 4.944 1.19a56.592 56.592 0 0 1 5.5 1.4 15.925 15.925 0 0 1 4.151 1.929 8.212 8.212 0 0 1 2.643 2.856 8.621 8.621 0 0 1 .926 4.176 9.155 9.155 0 0 1-.978 4.335 8.735 8.735 0 0 1-2.75 3.093 12.936 12.936 0 0 1-4.23 1.876 21.88 21.88 0 0 1-5.47.634 21.114 21.114 0 0 1-14.856-5.6l1.426-2.167a17.245 17.245 0 0 0 5.816 3.939 19.629 19.629 0 0 0 7.719 1.453 14.079 14.079 0 0 0 7.692-1.8 6.054 6.054 0 0 0 2.775-5.447 6.442 6.442 0 0 0-.712-3.145 6.365 6.365 0 0 0-2.195-2.247 15.2 15.2 0 0 0-3.675-1.638q-2.193-.688-5.154-1.321-3.012-.635-5.313-1.349a14.454 14.454 0 0 1-3.887-1.8 7.126 7.126 0 0 1-2.377-2.618 8.339 8.339 0 0 1-.794-3.86 9.9 9.9 0 0 1 .978-4.492 9.484 9.484 0 0 1 2.722-3.3 12.161 12.161 0 0 1 4.176-2.035 19.786 19.786 0 0 1 5.393-.687 18.292 18.292 0 0 1 6.5 1.083 15.389 15.389 0 0 1 5.179 3.3z"/><path d="M136.452 224.201v2.433h-25.009v-37.535h24.531v2.429H114.14v14.749h19.084v2.327H114.14v15.6z"/><path d="M148.927 226.635l15.966-37.536h2.22l15.966 37.536h-2.907l-5.235-12.373h-17.922l-5.233 12.372zm17.076-34.258l-8.354 19.666h16.548z"/><path d="M220.402 191.528h-13.744v35.1h-2.7v-35.1h-13.743v-2.431h30.188z"/><path d="M251.225 226.635l15.961-37.536h2.22l15.966 37.536h-2.907l-5.233-12.372h-17.917l-5.229 12.372zm17.076-34.258l-8.354 19.666h16.548z"/><path d="M322.7 191.528h-13.741v35.1h-2.7v-35.1h-13.744v-2.431H322.7z"/><path d="M384.133 191.528h-13.744v35.1h-2.7v-35.1h-13.741v-2.431h30.185z"/><path d="M428.276 189.099v37.536h-2.7v-17.974h-23.675v17.974h-2.7v-37.536h2.7v17.129h23.68v-17.129z"/><path d="M472.209 224.201v2.433h-25.006v-37.535h24.531v2.429h-21.836v14.749h19.083v2.327h-19.083v15.6z"/><path d="M536.442 191.528h-13.748v35.1h-2.693v-35.1h-13.744v-2.431h30.185z"/><path d="M543.631 226.635l15.966-37.536h2.222l15.966 37.536h-2.909l-5.233-12.372h-17.922l-5.235 12.372zm17.076-34.258l-8.352 19.666h16.548z"/><path d="M620.29 216.905a9.257 9.257 0 0 1-.794 3.834 9.809 9.809 0 0 1-2.167 3.093 9.911 9.911 0 0 1-3.225 2.061 10.417 10.417 0 0 1-3.914.741h-17.549v-37.535h17.5a7.391 7.391 0 0 1 3.541.846 8.822 8.822 0 0 1 2.7 2.195 10.048 10.048 0 0 1 1.719 3.066 10.336 10.336 0 0 1 .607 3.462 9.968 9.968 0 0 1-1.428 5.233 8.469 8.469 0 0 1-3.962 3.489 9.339 9.339 0 0 1 5.1 3.568 9.947 9.947 0 0 1 1.872 5.947zm-24.954-25.377v15.015h13.746a6.185 6.185 0 0 0 2.8-.637 7.321 7.321 0 0 0 2.195-1.665 7.987 7.987 0 0 0 1.981-5.206 8.19 8.19 0 0 0-.5-2.882 7.923 7.923 0 0 0-1.374-2.379 6.551 6.551 0 0 0-2.088-1.638 5.943 5.943 0 0 0-2.7-.609zm22.259 25a8.114 8.114 0 0 0-.53-2.88 8.019 8.019 0 0 0-1.481-2.484 7.2 7.2 0 0 0-2.247-1.721 6.258 6.258 0 0 0-2.777-.632h-15.224v15.384h14.854a6.837 6.837 0 0 0 2.936-.632 7.242 7.242 0 0 0 2.327-1.721 8.655 8.655 0 0 0 1.558-2.456 7.234 7.234 0 0 0 .584-2.851z"/><path d="M636.784 226.635v-37.536h2.7v35.1H661.9v2.433z"/><path d="M702.019 224.201v2.433h-25v-37.535h24.525v2.429H679.71v14.749h19.086v2.327H679.71v15.6z"/></g></svg>