<?xml version="1.0" encoding="utf-8"?>
<!-- Generator: Adobe Illustrator 26.3.1, SVG Export Plug-In . SVG Version: 6.00 Build 0)  -->
<svg version="1.1" id="Layer_2_00000121975981185170468420000011361877069947748029_"
	 xmlns="http://www.w3.org/2000/svg" xmlns:xlink="http://www.w3.org/1999/xlink" x="0px" y="0px" viewBox="0 0 802.6 198.2"
	 enable-background="new 0 0 802.6 198.2" xml:space="preserve">
<g>
	<g>
		<path fill="#FFFFFF" d="M494.2,136.9h-15.6v-18h51.8v18h-15.6v57.8h-20.6L494.2,136.9L494.2,136.9z"/>
		<path fill="#FFFFFF" d="M258.8,136.9h-15.6v-18H295v18h-15.6v57.8h-20.6V136.9z"/>
		<path fill="#FFFFFF" d="M533.5,194.6l28.1-75.7l22.7-0.1l28.1,75.8H591l-5.1-14h-26.2l-5,14H533.5z M564.5,165.3h16.1l-8-23.1
			L564.5,165.3z"/>
		<path fill="#FFFFFF" d="M626.2,118.8c0,0,19.2,0,31.4,0c13.6,0,21.5,7.6,21.5,18.7c0,7.4-3.6,12.9-10.1,16.1
			c6.8,1.5,15.4,6.1,15.4,18.3c0,16.2-12.3,22.7-25.5,22.7c-12.7,0-32.6-0.1-32.6-0.1v-75.7H626.2z M645.6,148h5.8
			c4.4,0,8.4-1.7,8.4-7.6c0-5.5-4.5-6.9-8.8-6.9h-5.4V148z M645.6,179.5h9.2c5,0,9.8-1.8,9.8-8.6c0-6.2-5.1-8.1-10.2-8.1h-8.8V179.5
			z"/>
		<path fill="#FFFFFF" d="M699.5,194.6v-75.8h19.8v58.6h23.9v17.2L699.5,194.6L699.5,194.6z"/>
		<path fill="#FFFFFF" d="M757.9,118.8h43.9V136h-24.1v12.3h22.8v16.8h-22.8v12.7h24.5v16.8h-44.3L757.9,118.8L757.9,118.8z"/>
		<path fill="#FFFFFF" d="M394.6,118.8h43.9V136h-24.1v12.3h22.8v16.8h-22.8v12.7h24.5v16.8h-44.3V118.8z"/>
	</g>
	<g>
		<path fill="#FFFFFF" d="M244.1,78.9l28.2-76l22.8-0.1l28.2,76.1h-21.5l-5.2-14.1h-26.3l-5.1,14.1H244.1z M275.3,49.5h16.2l-8-23.3
			L275.3,49.5z"/>
		<path fill="#FFFFFF" d="M664.6,78.9l28.2-76l22.8-0.1l28.2,76.1h-21.5l-5.2-14.1h-26.3l-5.1,14.1H664.6z M695.9,49.5H712l-8-23.3
			L695.9,49.5z"/>
		<path fill="#FFFFFF" d="M390.9,0c9.8,0,18.9,4.6,24.3,8.1L407.4,23c0,0-7.9-6.1-15.3-6.1c-4.9,0-7.7,2.7-7.7,6.7
			c0,4.1,4.7,5.5,8.6,7c2.4,0.9,6.3,2.5,8.2,3.3c11.4,4.6,17.3,11.5,17.3,23c0,16.3-15.1,24.8-30.4,24.8c-10.7,0-18.3-4.5-26.2-9.4
			c0,0,6.3-12.5,7.9-15.4c3.7,3.3,10.6,7.4,17.9,7.4c5.6,0,11-1.9,11-6c0-3.2-0.5-4.7-7.9-7.5c-2.4-0.9-8-3.1-11.3-4.6
			c-9.6-4.4-14.9-11.2-14.9-22C364.8,9,377.4,0,390.9,0z"/>
		<path fill="#FFFFFF" d="M433.2,2.8h44.1v17.3h-24.2v12.3H476v16.9h-22.9V62h24.6v16.9h-44.5V2.8z"/>
		<path fill="#FFFFFF" d="M591.3,23h-24.1V2.8h68.3V23h-24.1v57h-20.1L591.3,23L591.3,23z"/>
		<path fill="#FFFFFF" d="M765.4,20.8h-16.1v-18h53.3v18h-16.3v58.1h-20.8V20.8H765.4z"/>
		<polygon fill="#FFFFFF" points="562.4,39.8 524.8,39.8 538.3,2.8 516.7,2.8 488.7,79.9 510.1,79.9 517.4,59.9 548.2,59.9 
			555.4,79.9 576.7,79.9 		"/>
	</g>
	<path fill="#FFFFFF" d="M175.2,1.2H21.9C9.8,1.2,0,11,0,23.1v153.3c0,12.1,9.8,21.9,21.9,21.9h153.3c12.1,0,21.9-9.8,21.9-21.9
		V23.1C197,11,187.3,1.2,175.2,1.2z M91.8,146.5l-9.4-25.6H44.9l-9.4,25.6H8.2L44,48.3h27.4L54.3,95.1h18.8h27.4l9.4,25.8l9.4,25.6
		H91.8z M187.4,74.1h-30.1v72.4h-25.8V74.1h-28.7V48.3h84.6V74.1z"/>
	<polygon fill="#FFFFFF" points="355,118.8 355,147.3 327,147.3 327,118.8 307.3,118.8 307.3,194.6 327,194.6 327,164 355,164 
		355,194.6 374.7,194.6 374.7,118.8 	"/>
</g>
</svg>
