<?xml version="1.0" encoding="utf-8"?>
<!-- Generator: Adobe Illustrator 26.0.2, SVG Export Plug-In . SVG Version: 6.00 Build 0)  -->
<svg version="1.1" id="Laag_1" xmlns="http://www.w3.org/2000/svg" xmlns:xlink="http://www.w3.org/1999/xlink" x="0px" y="0px"
	 viewBox="0 0 832.344 396.032" enable-background="new 0 0 832.344 396.032" xml:space="preserve">
<g>
	<g>
		<polygon fill="#FFFFFF" points="663.034,3.383 663.034,31.97 726.089,31.97 726.089,216.522 758.981,216.522 758.981,31.97 
			822.343,31.97 822.343,3.383 		"/>
	</g>
	<g>
		<path fill="#FFFFFF" d="M40.928,379.558h-25.06l-5.628,15.653H2.106l22.842-59.816h6.902l22.883,59.816h-8.093L40.928,379.558z
			 M18.251,373.108h20.336l-10.188-27.977L18.251,373.108z"/>
		<path fill="#FFFFFF" d="M101.238,368.548c-6.765-1.944-11.688-4.334-14.769-7.169c-3.082-2.835-4.622-6.333-4.622-10.497
			c0-4.71,1.883-8.607,5.649-11.688c3.766-3.081,8.662-4.622,14.687-4.622c4.108,0,7.771,0.795,10.99,2.383
			c3.218,1.589,5.71,3.78,7.477,6.573s2.65,5.848,2.65,9.161h-7.929c0-3.628-1.15-6.479-3.451-8.555
			c-2.301-2.075-5.546-3.113-9.737-3.113c-3.889,0-6.922,0.858-9.1,2.573c-2.177,1.715-3.266,4.095-3.266,7.14
			c0,2.442,1.033,4.508,3.102,6.194c2.068,1.688,5.587,3.231,10.559,4.63c4.971,1.399,8.859,2.941,11.667,4.625
			c2.807,1.684,4.889,3.65,6.245,5.896c1.356,2.246,2.034,4.889,2.034,7.929c0,4.848-1.89,8.73-5.669,11.647
			c-3.779,2.917-8.833,4.375-15.159,4.375c-4.108,0-7.943-0.788-11.503-2.362c-3.561-1.575-6.306-3.731-8.237-6.47
			c-1.931-2.739-2.896-5.847-2.896-9.326h7.929c0,3.615,1.335,6.47,4.006,8.566s6.237,3.143,10.702,3.143
			c4.163,0,7.354-0.849,9.572-2.547c2.218-1.698,3.328-4.012,3.328-6.943c0-2.93-1.027-5.197-3.082-6.799
			C110.358,371.691,106.633,370.109,101.238,368.548z"/>
		<path fill="#FFFFFF" d="M167.339,367.562h-25.923v21.199h30.113v6.45h-38.001v-59.816h37.591v6.45h-29.703v19.268h25.923V367.562z
			"/>
		<path fill="#FFFFFF" d="M214.379,379.558h-25.06l-5.628,15.653h-8.134l22.842-59.816h6.902l22.883,59.816h-8.093L214.379,379.558z
			 M191.702,373.108h20.336l-10.188-27.977L191.702,373.108z"/>
		<path fill="#FFFFFF" d="M272.265,341.845h-19.227v53.366h-7.847v-53.366h-19.186v-6.45h46.259V341.845z"/>
		<path fill="#FFFFFF" d="M333.354,379.558h-25.06l-5.628,15.653h-8.134l22.842-59.816h6.902l22.883,59.816h-8.093L333.354,379.558z
			 M310.677,373.108h20.336l-10.188-27.977L310.677,373.108z"/>
		<path fill="#FFFFFF" d="M391.24,341.845h-19.227v53.366h-7.847v-53.366h-19.186v-6.45h46.259V341.845z"/>
		<path fill="#FFFFFF" d="M458.985,341.845h-19.227v53.366h-7.847v-53.366h-19.186v-6.45h46.259V341.845z"/>
		<path fill="#FFFFFF" d="M513.831,395.211h-7.929v-27.649h-30.154v27.649h-7.888v-59.816h7.888v25.718h30.154v-25.718h7.929
			V395.211z"/>
		<path fill="#FFFFFF" d="M561.651,367.562h-25.923v21.199h30.113v6.45h-38.001v-59.816h37.591v6.45h-29.703v19.268h25.923V367.562z
			"/>
		<path fill="#FFFFFF" d="M636.174,341.845h-19.227v53.366h-7.847v-53.366h-19.186v-6.45h46.259V341.845z"/>
		<path fill="#FFFFFF" d="M674.833,379.558h-25.06l-5.628,15.653h-8.134l22.842-59.816h6.902l22.883,59.816h-8.093L674.833,379.558z
			 M652.155,373.108h20.336l-10.188-27.977L652.155,373.108z"/>
		<path fill="#FFFFFF" d="M696.689,395.211v-59.816h19.555c6.491,0,11.373,1.342,14.646,4.026c3.272,2.685,4.91,6.656,4.91,11.914
			c0,2.794-0.795,5.266-2.383,7.416c-1.589,2.15-3.753,3.814-6.491,4.991c3.231,0.904,5.786,2.623,7.662,5.156
			c1.875,2.534,2.814,5.553,2.814,9.059c0,5.368-1.74,9.586-5.217,12.653c-3.479,3.068-8.395,4.601-14.749,4.601H696.689z
			 M704.577,360.907h11.914c3.451,0,6.21-0.864,8.278-2.593c2.067-1.729,3.102-4.076,3.102-7.041c0-3.294-0.959-5.689-2.875-7.184
			c-1.917-1.496-4.834-2.244-8.751-2.244h-11.667V360.907z M704.577,367.234v21.527H717.6c3.67,0,6.566-0.951,8.689-2.855
			c2.122-1.903,3.184-4.526,3.184-7.867c0-7.203-3.917-10.805-11.75-10.805H704.577z"/>
		<path fill="#FFFFFF" d="M756.998,388.761h28.347v6.45h-36.276v-59.816h7.929V388.761z"/>
		<path fill="#FFFFFF" d="M828.153,367.562h-25.923v21.199h30.113v6.45h-38.001v-59.816h37.591v6.45h-29.703v19.268h25.923V367.562z
			"/>
	</g>
	<g>
		<path fill="#FFFFFF" d="M73.284,3.383L0.868,216.522h33.854l21.531-65.209h69.32l22.147,65.209h34.763L109.751,3.383H73.284z
			 M99.066,68.753l18.99,55.82H63.744l19.017-56.187c2.681-8.453,5.272-17.481,7.997-27.883
			C93.096,49.477,95.666,58.779,99.066,68.753z"/>
	</g>
	<g>
		<path fill="#FFFFFF" d="M272.05,93.396c-29.791-11.534-39.354-20.59-39.354-37.27c0-14.014,11.178-28.153,36.15-28.153
			c17.016,0,30.043,5.16,37.976,9.487l3.043,1.661l9.264-27.404l-2.093-1.188C310.097,6.597,294.729,0,269.769,0
			c-41.194,0-69.966,24.344-69.966,59.202c0,28.241,18.013,47.782,56.617,61.468c27.115,10.427,37.196,20.862,37.196,38.496
			c0,20.023-15.503,32.461-40.457,32.461c-15.759,0-33.125-4.898-46.458-13.102l-3.223-1.984l-8.482,28.144l1.796,1.197
			c12.114,8.075,34.534,13.715,54.52,13.715c55.73,0,75.504-33.714,75.504-62.585C326.818,127.237,310.439,108.212,272.05,93.396z"
			/>
	</g>
	<g>
		<polygon fill="#FFFFFF" points="663.034,3.383 663.034,31.97 726.089,31.97 726.089,216.522 758.981,216.522 758.981,31.97 
			822.344,31.97 822.344,3.383 		"/>
	</g>
	<g>
		<g>
			<polygon fill="#FFFFFF" points="491.064,124.775 403.633,124.572 442.325,3.383 413.172,3.383 340.756,216.522 374.611,216.522 
				396.142,151.313 465.462,151.313 487.608,216.522 522.371,216.522 			"/>
		</g>
	</g>
	<g>
		<g>
			<polygon fill="#FFFFFF" points="593.845,88.118 657.208,88.118 657.208,59.531 497.898,59.531 497.898,88.118 560.953,88.118 
				560.953,216.522 593.845,216.522 			"/>
		</g>
	</g>
	<g>
		<path fill="#FFFFFF" d="M40.928,379.558h-25.06l-5.628,15.653H2.106l22.842-59.816h6.902l22.883,59.816h-8.093L40.928,379.558z
			 M18.251,373.108h20.336l-10.188-27.977L18.251,373.108z"/>
		<path fill="#FFFFFF" d="M101.238,368.548c-6.765-1.944-11.688-4.334-14.769-7.169c-3.082-2.835-4.622-6.333-4.622-10.497
			c0-4.71,1.883-8.607,5.649-11.688c3.766-3.081,8.662-4.622,14.687-4.622c4.108,0,7.771,0.795,10.99,2.383
			c3.218,1.589,5.71,3.78,7.477,6.573s2.65,5.848,2.65,9.161h-7.929c0-3.628-1.15-6.479-3.451-8.555
			c-2.301-2.075-5.546-3.113-9.737-3.113c-3.889,0-6.922,0.858-9.1,2.573c-2.177,1.715-3.266,4.095-3.266,7.14
			c0,2.442,1.033,4.508,3.102,6.194c2.068,1.688,5.587,3.231,10.559,4.63c4.971,1.399,8.859,2.941,11.667,4.625
			c2.807,1.684,4.889,3.65,6.245,5.896c1.356,2.246,2.034,4.889,2.034,7.929c0,4.848-1.89,8.73-5.669,11.647
			c-3.779,2.917-8.833,4.375-15.159,4.375c-4.108,0-7.943-0.788-11.503-2.362c-3.561-1.575-6.306-3.731-8.237-6.47
			c-1.931-2.739-2.896-5.847-2.896-9.326h7.929c0,3.615,1.335,6.47,4.006,8.566s6.237,3.143,10.702,3.143
			c4.163,0,7.354-0.849,9.572-2.547c2.218-1.698,3.328-4.012,3.328-6.943c0-2.93-1.027-5.197-3.082-6.799
			C110.358,371.691,106.633,370.109,101.238,368.548z"/>
		<path fill="#FFFFFF" d="M167.339,367.562h-25.923v21.199h30.113v6.45h-38.001v-59.816h37.591v6.45h-29.703v19.268h25.923V367.562z
			"/>
		<path fill="#FFFFFF" d="M214.379,379.558h-25.06l-5.628,15.653h-8.134l22.842-59.816h6.902l22.883,59.816h-8.093L214.379,379.558z
			 M191.702,373.108h20.336l-10.188-27.977L191.702,373.108z"/>
		<path fill="#FFFFFF" d="M272.265,341.845h-19.227v53.366h-7.847v-53.366h-19.186v-6.45h46.259V341.845z"/>
		<path fill="#FFFFFF" d="M333.354,379.558h-25.06l-5.628,15.653h-8.134l22.842-59.816h6.902l22.883,59.816h-8.093L333.354,379.558z
			 M310.677,373.108h20.336l-10.188-27.977L310.677,373.108z"/>
		<path fill="#FFFFFF" d="M391.24,341.845h-19.227v53.366h-7.847v-53.366h-19.186v-6.45h46.259V341.845z"/>
		<path fill="#FFFFFF" d="M458.985,341.845h-19.227v53.366h-7.847v-53.366h-19.186v-6.45h46.259V341.845z"/>
		<path fill="#FFFFFF" d="M513.831,395.211h-7.929v-27.649h-30.154v27.649h-7.888v-59.816h7.888v25.718h30.154v-25.718h7.929
			V395.211z"/>
		<path fill="#FFFFFF" d="M561.651,367.562h-25.923v21.199h30.113v6.45h-38.001v-59.816h37.591v6.45h-29.703v19.268h25.923V367.562z
			"/>
		<path fill="#FFFFFF" d="M636.174,341.845h-19.227v53.366h-7.847v-53.366h-19.186v-6.45h46.259V341.845z"/>
		<path fill="#FFFFFF" d="M674.833,379.558h-25.06l-5.628,15.653h-8.134l22.842-59.816h6.902l22.883,59.816h-8.093L674.833,379.558z
			 M652.155,373.108h20.336l-10.188-27.977L652.155,373.108z"/>
		<path fill="#FFFFFF" d="M696.689,395.211v-59.816h19.555c6.491,0,11.373,1.342,14.646,4.026c3.272,2.685,4.91,6.656,4.91,11.914
			c0,2.794-0.795,5.266-2.383,7.416c-1.589,2.15-3.753,3.814-6.491,4.991c3.231,0.904,5.786,2.623,7.662,5.156
			c1.875,2.534,2.814,5.553,2.814,9.059c0,5.368-1.74,9.586-5.217,12.653c-3.479,3.068-8.395,4.601-14.749,4.601H696.689z
			 M704.577,360.907h11.914c3.451,0,6.21-0.864,8.278-2.593c2.067-1.729,3.102-4.076,3.102-7.041c0-3.294-0.959-5.689-2.875-7.184
			c-1.917-1.496-4.834-2.244-8.751-2.244h-11.667V360.907z M704.577,367.234v21.527H717.6c3.67,0,6.566-0.951,8.689-2.855
			c2.122-1.903,3.184-4.526,3.184-7.867c0-7.203-3.917-10.805-11.75-10.805H704.577z"/>
		<path fill="#FFFFFF" d="M756.998,388.761h28.347v6.45h-36.276v-59.816h7.929V388.761z"/>
		<path fill="#FFFFFF" d="M828.153,367.562h-25.923v21.199h30.113v6.45h-38.001v-59.816h37.591v6.45h-29.703v19.268h25.923V367.562z
			"/>
	</g>
	<g>
		<rect y="275.647" fill="#FFFFFF" width="822.451" height="4.481"/>
	</g>
</g>
</svg>
