<?xml version="1.0" encoding="utf-8"?>
<!-- Generator: Adobe Illustrator 26.0.2, SVG Export Plug-In . SVG Version: 6.00 Build 0)  -->
<svg version="1.1" id="Laag_1" xmlns="http://www.w3.org/2000/svg" xmlns:xlink="http://www.w3.org/1999/xlink" x="0px" y="0px"
	 viewBox="0 0 821.476 219.598" enable-background="new 0 0 821.476 219.598" xml:space="preserve">
<g>
	<polygon fill="#FFFFFF" points="662.166,3.383 662.166,31.97 725.221,31.97 725.221,216.522 758.113,216.522 758.113,31.97 
		821.475,31.97 821.475,3.383 	"/>
	<path fill="#FFFFFF" d="M72.416,3.383L0,216.522h33.854l21.531-65.209h69.32l22.147,65.209h34.763L108.883,3.383H72.416z
		 M98.198,68.753l18.99,55.82H62.876l19.017-56.187c2.681-8.453,5.272-17.481,7.997-27.883
		C92.228,49.477,94.798,58.779,98.198,68.753z"/>
	<path fill="#FFFFFF" d="M271.182,93.396c-29.791-11.534-39.354-20.59-39.354-37.27c0-14.014,11.178-28.153,36.15-28.153
		c17.016,0,30.043,5.16,37.976,9.487l3.043,1.661l9.264-27.404l-2.093-1.188C309.229,6.597,293.861,0,268.901,0
		c-41.194,0-69.966,24.344-69.966,59.202c0,28.241,18.013,47.782,56.617,61.468c27.115,10.427,37.196,20.862,37.196,38.496
		c0,20.023-15.503,32.461-40.457,32.461c-15.759,0-33.125-4.898-46.458-13.102l-3.223-1.984l-8.482,28.144l1.796,1.197
		c12.114,8.075,34.534,13.715,54.52,13.715c55.73,0,75.504-33.714,75.504-62.585C325.95,127.237,309.571,108.212,271.182,93.396z"/>
	<polygon fill="#FFFFFF" points="662.166,3.383 662.166,31.97 725.221,31.97 725.221,216.522 758.113,216.522 758.113,31.97 
		821.476,31.97 821.476,3.383 	"/>
	<g>
		<polygon fill="#FFFFFF" points="490.196,124.775 402.764,124.572 441.457,3.383 412.304,3.383 339.888,216.522 373.743,216.522 
			395.274,151.313 464.594,151.313 486.74,216.522 521.503,216.522 		"/>
	</g>
	<g>
		<polygon fill="#FFFFFF" points="592.977,88.118 656.34,88.118 656.34,59.531 497.03,59.531 497.03,88.118 560.085,88.118 
			560.085,216.522 592.977,216.522 		"/>
	</g>
</g>
</svg>
