<svg xmlns="http://www.w3.org/2000/svg" width="153.715" height="30"><g data-name="Group 10" transform="translate(-51.783 -117.376)"><path data-name="Path 1" d="M51.783 147.086l13.2-29.5h4.248l13.157 29.5H76.9l-3.509-8.02H60.74l-3.417 8.02zm15.329-24.308l-5.448 12.84h10.71z" fill="#fff"/><path data-name="Path 2" d="M110.003 124.523a7.166 7.166 0 0 0-1.339-.977 14.162 14.162 0 0 0-2.054-.976 16.038 16.038 0 0 0-2.609-.747 15.3 15.3 0 0 0-3.047-.291 8.138 8.138 0 0 0-4.616 1.081 3.473 3.473 0 0 0-1.569 3.034 2.889 2.889 0 0 0 .507 1.764 4.107 4.107 0 0 0 1.525 1.185 13.579 13.579 0 0 0 2.538.893q1.525.4 3.555.852 2.4.581 4.409 1.2a13.28 13.28 0 0 1 3.417 1.559 6.334 6.334 0 0 1 2.979 5.713 7.554 7.554 0 0 1-.97 3.947 7.762 7.762 0 0 1-2.609 2.639 12.094 12.094 0 0 1-3.809 1.5 21.485 21.485 0 0 1-4.616.477 25.834 25.834 0 0 1-7.248-1.018 21.474 21.474 0 0 1-6.325-2.97l2.4-3.989a11.194 11.194 0 0 0 1.709 1.206 16.024 16.024 0 0 0 2.608 1.226 24.489 24.489 0 0 0 3.3.956 17.464 17.464 0 0 0 3.74.395 9.017 9.017 0 0 0 4.594-.977 3.124 3.124 0 0 0 1.638-2.846 2.894 2.894 0 0 0-.6-1.87 5.015 5.015 0 0 0-1.755-1.308 15.549 15.549 0 0 0-2.816-1q-1.663-.437-3.786-.935a41.778 41.778 0 0 1-4.27-1.226 11.007 11.007 0 0 1-3.024-1.557 6.226 6.226 0 0 1-1.824-2.141 6.487 6.487 0 0 1-.623-2.97 8.034 8.034 0 0 1 .9-3.844 8.231 8.231 0 0 1 2.494-2.826 11.5 11.5 0 0 1 3.763-1.723 17.961 17.961 0 0 1 4.663-.582 19.107 19.107 0 0 1 6.209.956 21.323 21.323 0 0 1 4.917 2.368z" fill="#fff"/><g data-name="Group 9"><path data-name="Path 3" d="M144.691 134.73h-14.925l7.2-17.145h-4.247l-13.2 29.5h5.54l3.416-8.02h12.645l3.508 8.02h5.494z" fill="#fff"/></g><path data-name="Path 4" d="M174.972 121.697h-10.9v25.388h-5.171v-25.388h-10.94v-4.113h27.008z" fill="#fff"/><path data-name="Path 5" d="M205.498 121.697h-10.895v25.388h-5.171v-25.388h-10.939v-4.113h27.008z" fill="#fff"/></g></svg>