<svg xmlns="http://www.w3.org/2000/svg" width="702.019" height="38.116" viewBox="0 0 702.019 38.116"><path d="M227.775,367.507l15.966-37.536h2.22l15.966,37.536H259.02l-5.233-12.372H235.865l-5.233,12.372Zm17.076-34.258L236.5,352.915h16.548Z" transform="translate(-227.775 -329.707)" fill="#fff"/><path d="M284.762,336.347q-3.647-4.071-10.31-4.071-5.5,0-8.008,2.088a6.939,6.939,0,0,0-2.511,5.629,6.485,6.485,0,0,0,.632,3.013,5.228,5.228,0,0,0,1.983,2.038,14.424,14.424,0,0,0,3.437,1.426q2.089.609,4.944,1.19a56.592,56.592,0,0,1,5.5,1.4,15.925,15.925,0,0,1,4.151,1.929,8.212,8.212,0,0,1,2.643,2.856,8.621,8.621,0,0,1,.926,4.176,9.155,9.155,0,0,1-.978,4.335,8.735,8.735,0,0,1-2.75,3.093,12.936,12.936,0,0,1-4.23,1.876,21.88,21.88,0,0,1-5.47.634,21.114,21.114,0,0,1-14.856-5.6l1.426-2.167a17.245,17.245,0,0,0,5.816,3.939,19.629,19.629,0,0,0,7.719,1.453,14.079,14.079,0,0,0,7.692-1.8,6.054,6.054,0,0,0,2.775-5.447,6.442,6.442,0,0,0-.712-3.145,6.365,6.365,0,0,0-2.195-2.247,15.2,15.2,0,0,0-3.675-1.638q-2.193-.688-5.154-1.321-3.012-.635-5.313-1.349a14.454,14.454,0,0,1-3.887-1.8,7.126,7.126,0,0,1-2.377-2.618,8.339,8.339,0,0,1-.794-3.86,9.9,9.9,0,0,1,.978-4.492,9.484,9.484,0,0,1,2.722-3.3,12.161,12.161,0,0,1,4.176-2.035,19.786,19.786,0,0,1,5.393-.687,18.292,18.292,0,0,1,6.5,1.083,15.389,15.389,0,0,1,5.179,3.3Z" transform="translate(-192.666 -329.845)" fill="#fff"/><path d="M306,365.073v2.433H280.991V329.971h24.531V332.4H283.688v14.749h19.084v2.327H283.688v15.6Z" transform="translate(-169.548 -329.707)" fill="#fff"/><path d="M298.89,367.507l15.966-37.536h2.22l15.966,37.536h-2.907L324.9,355.134H306.978l-5.233,12.372Zm17.076-34.258-8.354,19.666H324.16Z" transform="translate(-149.963 -329.707)" fill="#fff"/><path d="M348.793,332.4H335.049v35.1h-2.7V332.4H318.606v-2.431h30.188Z" transform="translate(-128.391 -329.707)" fill="#fff"/><path d="M347.739,367.507,363.7,329.971h2.22l15.966,37.536h-2.907l-5.233-12.372H355.829L350.6,367.507Zm17.076-34.258-8.354,19.666h16.548Z" transform="translate(-96.514 -329.707)" fill="#fff"/><path d="M397.641,332.4H383.9v35.1h-2.7V332.4H367.456v-2.431h30.185Z" transform="translate(-74.941 -329.707)" fill="#fff"/><path d="M426.976,332.4H413.232v35.1h-2.7V332.4H396.791v-2.431h30.185Z" transform="translate(-42.843 -329.707)" fill="#fff"/><path d="M447.475,329.971v37.536h-2.7V349.533H421.1v17.974h-2.7V329.971h2.7V347.1H444.78V329.971Z" transform="translate(-19.199 -329.707)" fill="#fff"/><path d="M466.328,365.073v2.433H441.322V329.971h24.531V332.4H444.017v14.749H463.1v2.327H444.017v15.6Z" transform="translate(5.881 -329.707)" fill="#fff"/><path d="M499.706,332.4H485.958v35.1h-2.693V332.4H469.521v-2.431h30.185Z" transform="translate(36.736 -329.707)" fill="#fff"/><path d="M487.368,367.507l15.966-37.536h2.222l15.966,37.536h-2.909l-5.233-12.372H495.458l-5.235,12.372Zm17.076-34.258-8.352,19.666H512.64Z" transform="translate(56.263 -329.707)" fill="#fff"/><path d="M538.42,357.777a9.257,9.257,0,0,1-.794,3.834,9.809,9.809,0,0,1-2.167,3.093,9.911,9.911,0,0,1-3.225,2.061,10.417,10.417,0,0,1-3.914.741H510.771V329.971h17.5a7.391,7.391,0,0,1,3.541.846,8.822,8.822,0,0,1,2.7,2.195,10.048,10.048,0,0,1,1.719,3.066,10.336,10.336,0,0,1,.607,3.462,9.968,9.968,0,0,1-1.428,5.233,8.469,8.469,0,0,1-3.962,3.489,9.339,9.339,0,0,1,5.1,3.568A9.947,9.947,0,0,1,538.42,357.777ZM513.466,332.4v15.015h13.746a6.185,6.185,0,0,0,2.8-.637,7.321,7.321,0,0,0,2.195-1.665,7.987,7.987,0,0,0,1.981-5.206,8.19,8.19,0,0,0-.5-2.882,7.923,7.923,0,0,0-1.374-2.379,6.551,6.551,0,0,0-2.088-1.638,5.943,5.943,0,0,0-2.7-.609Zm22.259,25a8.114,8.114,0,0,0-.53-2.88,8.019,8.019,0,0,0-1.481-2.484,7.2,7.2,0,0,0-2.247-1.721,6.258,6.258,0,0,0-2.777-.632H513.466v15.384H528.32a6.837,6.837,0,0,0,2.936-.632,7.242,7.242,0,0,0,2.327-1.721,8.655,8.655,0,0,0,1.558-2.456A7.234,7.234,0,0,0,535.725,357.407Z" transform="translate(81.87 -329.707)" fill="#fff"/><path d="M531.85,367.507V329.971h2.7v35.1h22.416v2.433Z" transform="translate(104.934 -329.707)" fill="#fff"/><path d="M576.065,365.073v2.433h-25V329.971H575.59V332.4H553.756v14.749h19.086v2.327H553.756v15.6Z" transform="translate(125.954 -329.707)" fill="#fff"/></svg>